# xmcd
#
# Track frame offsets:
#	150
#	18005
#	37487
#	48362
#	65190
#	76300
#	90237
#	107627
#	120497
#	137635
#	152045
#	165122
#	180800
#	195665
#	209000
#	226307
#	238645
#	255000
#	269805
#	286240
#
# Disc length: 4007 seconds
# Revision: 12
# Processed by: cddbd v1.5.2PL0 Copyright (c) Steve Scherf et al.
# Submitted via: dBpowerAMP V12.0
#
DISCID=050fa514
DTITLE=Alan Jackson - The Greatest Hits Collection
DYEAR=1995
DGENRE=Country
TTITLE0=Chattahoochee
TTITLE1=Gone Country
TTITLE2=She's Got The Rythm (And I Got The Blues)
TTITLE3=Midnight In Montgomery
TTITLE4=Tall, Tall Trees
TTITLE5=Chasin' That Neon Rainbow
TTITLE6=I'll Try
TTITLE7=Don't Rock The Jukebox
TTITLE8=Livin' On Love
TTITLE9=Summertime Blues
TTITLE10=Love's Got A Hold On You
TTITLE11=(Who Says) You Can't Have It All
TTITLE12=Home
TTITLE13=Wanted
TTITLE14=I Don't Even Know Your Name
TTITLE15=Dallas
TTITLE16=Here In The Real World
TTITLE17=Someday
TTITLE18=Mercury Blues
TTITLE19=I'd Love You All Over Again
EXTD=
EXTT0=
EXTT1=
EXTT2=
EXTT3=
EXTT4=
EXTT5=
EXTT6=
EXTT7=
EXTT8=
EXTT9=
EXTT10=
EXTT11=
EXTT12=
EXTT13=
EXTT14=
EXTT15=
EXTT16=
EXTT17=
EXTT18=
EXTT19=
PLAYORDER=
